<mxfile host="app.diagrams.net" modified="2024-06-04T20:36:47.743Z" agent="Mozilla/5.0 (Windows NT 10.0; Win64; x64; rv:126.0) Gecko/20100101 Firefox/126.0" etag="gn80-ZBZdmMKMTDw6TsQ" version="24.4.13" type="device">
  <diagram name="Страница — 1" id="frRqzZi7UMSIvqMg1Smd">
    <mxGraphModel dx="1050" dy="566" grid="1" gridSize="10" guides="1" tooltips="1" connect="1" arrows="1" fold="1" page="1" pageScale="1" pageWidth="827" pageHeight="1169" math="0" shadow="0">
      <root>
        <mxCell id="0" />
        <mxCell id="1" parent="0" />
        <mxCell id="DJkayXgIhmpmzfG0EXOJ-5" style="edgeStyle=orthogonalEdgeStyle;rounded=0;orthogonalLoop=1;jettySize=auto;html=1;entryX=1;entryY=0.5;entryDx=0;entryDy=0;" edge="1" parent="1" source="DJkayXgIhmpmzfG0EXOJ-2" target="DJkayXgIhmpmzfG0EXOJ-3">
          <mxGeometry relative="1" as="geometry" />
        </mxCell>
        <mxCell id="DJkayXgIhmpmzfG0EXOJ-8" style="edgeStyle=orthogonalEdgeStyle;rounded=0;orthogonalLoop=1;jettySize=auto;html=1;entryX=0;entryY=0.5;entryDx=0;entryDy=0;" edge="1" parent="1" source="DJkayXgIhmpmzfG0EXOJ-2" target="DJkayXgIhmpmzfG0EXOJ-6">
          <mxGeometry relative="1" as="geometry" />
        </mxCell>
        <mxCell id="DJkayXgIhmpmzfG0EXOJ-12" style="edgeStyle=orthogonalEdgeStyle;rounded=0;orthogonalLoop=1;jettySize=auto;html=1;entryX=0.5;entryY=0;entryDx=0;entryDy=0;" edge="1" parent="1" source="DJkayXgIhmpmzfG0EXOJ-2" target="DJkayXgIhmpmzfG0EXOJ-11">
          <mxGeometry relative="1" as="geometry" />
        </mxCell>
        <mxCell id="DJkayXgIhmpmzfG0EXOJ-2" value="PHP Backend(Laravel)" style="rounded=0;whiteSpace=wrap;html=1;" vertex="1" parent="1">
          <mxGeometry x="309" y="220" width="210" height="60" as="geometry" />
        </mxCell>
        <mxCell id="DJkayXgIhmpmzfG0EXOJ-4" style="edgeStyle=orthogonalEdgeStyle;rounded=0;orthogonalLoop=1;jettySize=auto;html=1;entryX=0;entryY=0.5;entryDx=0;entryDy=0;" edge="1" parent="1" source="DJkayXgIhmpmzfG0EXOJ-3" target="DJkayXgIhmpmzfG0EXOJ-2">
          <mxGeometry relative="1" as="geometry" />
        </mxCell>
        <mxCell id="DJkayXgIhmpmzfG0EXOJ-3" value="&lt;div&gt;View&lt;/div&gt;" style="rounded=1;whiteSpace=wrap;html=1;" vertex="1" parent="1">
          <mxGeometry x="130" y="220" width="120" height="60" as="geometry" />
        </mxCell>
        <mxCell id="DJkayXgIhmpmzfG0EXOJ-7" style="edgeStyle=orthogonalEdgeStyle;rounded=0;orthogonalLoop=1;jettySize=auto;html=1;entryX=1;entryY=0.5;entryDx=0;entryDy=0;" edge="1" parent="1" source="DJkayXgIhmpmzfG0EXOJ-6" target="DJkayXgIhmpmzfG0EXOJ-2">
          <mxGeometry relative="1" as="geometry" />
        </mxCell>
        <mxCell id="DJkayXgIhmpmzfG0EXOJ-6" value="PostgreSQL Database" style="rounded=0;whiteSpace=wrap;html=1;" vertex="1" parent="1">
          <mxGeometry x="580" y="220" width="190" height="60" as="geometry" />
        </mxCell>
        <mxCell id="DJkayXgIhmpmzfG0EXOJ-13" style="edgeStyle=orthogonalEdgeStyle;rounded=0;orthogonalLoop=1;jettySize=auto;html=1;entryX=0.5;entryY=1;entryDx=0;entryDy=0;" edge="1" parent="1" source="DJkayXgIhmpmzfG0EXOJ-11" target="DJkayXgIhmpmzfG0EXOJ-2">
          <mxGeometry relative="1" as="geometry" />
        </mxCell>
        <mxCell id="DJkayXgIhmpmzfG0EXOJ-11" value="External Systems(Delivery)" style="ellipse;whiteSpace=wrap;html=1;" vertex="1" parent="1">
          <mxGeometry x="230" y="380" width="200" height="80" as="geometry" />
        </mxCell>
      </root>
    </mxGraphModel>
  </diagram>
</mxfile>
